<?xml version="1.0" encoding="UTF-8"?>
<!DOCTYPE svg PUBLIC "-//W3C//DTD SVG 1.1//EN" "http://www.w3.org/Graphics/SVG/1.1/DTD/svg11.dtd">
<!-- Creator: CorelDRAW 2021 (64-Bit) -->
<svg xmlns="http://www.w3.org/2000/svg" xml:space="preserve" width="19px" height="19px" version="1.1" style="shape-rendering:geometricPrecision; text-rendering:geometricPrecision; image-rendering:optimizeQuality; fill-rule:evenodd; clip-rule:evenodd"
viewBox="0 0 20.48 20.82"
 xmlns:xlink="http://www.w3.org/1999/xlink"
 xmlns:xodm="http://www.corel.com/coreldraw/odm/2003">
 <defs>
  <style type="text/css">
   <![CDATA[
    .fil0 {fill:#909090}
   ]]>
  </style>
 </defs>
 <g id="Layer_x0020_1">
  <metadata id="CorelCorpID_0Corel-Layer"/>
  <g id="_2184620351264">
   <path class="fil0" d="M2.51 9.72l0 -3.31 0.91 0 0 -0.79 1.89 0 0 -1.89 0.86 0 0 -1.17 3.01 0 0 1.08 2.02 0.02 0 -1.08 3.02 0 0 1.18 0.86 0 0 1.89 1.89 0 0 0.79 0.9 0 0 3.3 -0.92 0 0.03 1.33 0.98 0 0 3.3 -0.9 0 0 0.79 -1.89 0 0 1.89 -0.86 0 0 1.17 -3.02 0 0 -1.08 -2.11 0.04 0 1.08 -3.01 0 0 -1.17 -0.86 0 0 -1.89 -1.89 0 0 -0.79 -0.91 0 0 -3.31 0.81 0 0 -1.38 -0.81 0zm6.33 9.67l2.8 -0.05 0 1.43 3.99 0 0 -1.56 1.15 0 0 -2.51 2.5 0 0 -1.04 1.2 0 0 -4.38 -1.31 0 -0.04 -1.76 1.23 0 0 -4.38 -1.2 0 0 -1.04 -2.51 0 0 -2.51 -1.14 0 0 -1.56 -4 0 0 1.43 -2.67 -0.03 0 -1.43 -4 0 0 1.56 -1.14 0 0 2.51 -2.5 0 0 1.04 -1.2 0 0 4.38 1.07 0 0 1.84 -1.07 0 0 4.38 1.2 0 0 1.04 2.5 0 0 2.51 1.14 0 0 1.56 4 0 0 -1.43z"/>
   <path class="fil0" d="M6.28 7.71l0 5.43 1.04 0 0 0.91 2.93 0 2.92 0 0 -0.91 1.05 0 0 -5.43 -1.19 0 0 -0.89 -2.78 0 -2.79 0 0 0.89 -1.18 0zm0.89 0.61l0.92 0 0 -0.69 2.16 0 2.16 0 0 0.69 0.92 0 0 4.21 -0.81 0 0 0.71 -2.27 0 -2.27 0 0 -0.71 -0.81 0 0 -4.21z"/>
  </g>
 </g>
</svg>
